<svg width="4536" height="226" viewBox="0 0 4536 226" fill="none" xmlns="http://www.w3.org/2000/svg">
<path d="M3346.12 174.842C3334.98 174.842 3325.16 171.704 3316.63 165.428C3308.1 159.151 3302.12 150.269 3298.69 138.783L3321.25 129.901C3323.02 136.651 3326.04 142.039 3330.31 146.065C3334.57 150.092 3339.9 152.105 3346.29 152.105C3351.62 152.105 3356.18 150.802 3359.97 148.197C3363.76 145.473 3365.66 141.743 3365.66 137.006C3365.66 132.269 3363.82 128.421 3360.15 125.46C3356.6 122.381 3350.2 119.124 3340.96 115.69L3333.15 112.848C3324.98 110.006 3317.99 105.683 3312.19 99.8808C3306.39 93.9597 3303.48 86.5583 3303.48 77.6766C3303.48 71.0449 3305.2 65.0054 3308.64 59.558C3312.07 54.1105 3316.92 49.8473 3323.2 46.7683C3329.48 43.5709 3336.58 41.9722 3344.52 41.9722C3356 41.9722 3365.06 44.6959 3371.7 50.1434C3378.33 55.4724 3382.89 61.7488 3385.37 68.9725L3364.23 77.8542C3362.93 73.9463 3360.62 70.6897 3357.31 68.0844C3354.11 65.3606 3349.96 63.9988 3344.87 63.9988C3339.66 63.9988 3335.34 65.2422 3331.91 67.7291C3328.59 70.0975 3326.93 73.2357 3326.93 77.1437C3326.93 80.9332 3328.53 84.1898 3331.73 86.9135C3334.92 89.5188 3340.19 92.0649 3347.54 94.5518L3355.53 97.2163C3366.54 101.006 3374.95 106.039 3380.75 112.315C3386.68 118.473 3389.64 126.585 3389.64 136.651C3389.64 144.94 3387.5 151.987 3383.24 157.789C3378.98 163.474 3373.47 167.737 3366.72 170.579C3360.09 173.421 3353.22 174.842 3346.12 174.842ZM3444.08 173.421C3439.58 173.421 3435.43 172.77 3431.64 171.467C3427.85 170.046 3424.77 168.151 3422.41 165.783C3416.84 160.454 3414.06 152.875 3414.06 143.046V101.302H3398.25V81.4069H3414.06V55.8276H3437.33V81.4069H3459.53V101.302H3437.33V138.783C3437.33 143.401 3438.33 146.717 3440.35 148.73C3442 150.625 3444.85 151.572 3448.87 151.572C3451.12 151.572 3452.96 151.276 3454.38 150.684C3455.92 150.092 3457.87 149.085 3460.24 147.664V170.401C3455.15 172.414 3449.76 173.421 3444.08 173.421ZM3511.57 174.842C3500.68 174.842 3492.39 171.467 3486.7 164.717C3481.02 157.967 3478.18 148.552 3478.18 136.473V81.4069H3501.45V133.631C3501.45 139.789 3502.93 144.644 3505.89 148.197C3508.85 151.631 3512.76 153.348 3517.61 153.348C3524.24 153.348 3529.51 150.921 3533.42 146.065C3537.33 141.21 3539.28 135.052 3539.28 127.592V81.4069H3562.55V172H3540.7V160.631H3539.28C3536.56 165.013 3532.71 168.507 3527.74 171.112C3522.88 173.599 3517.49 174.842 3511.57 174.842ZM3623.26 174.842C3615.09 174.842 3607.63 172.829 3600.88 168.803C3594.25 164.658 3588.98 158.974 3585.07 151.75C3581.28 144.408 3579.38 136.059 3579.38 126.703C3579.38 117.466 3581.28 109.177 3585.07 101.835C3588.98 94.4926 3594.25 88.8083 3600.88 84.7819C3607.63 80.6371 3615.09 78.5647 3623.26 78.5647C3629.42 78.5647 3634.86 79.9266 3639.6 82.6503C3644.34 85.2556 3647.95 88.5122 3650.44 92.4202H3651.86L3650.44 79.6305V44.8144H3673.53V172H3651.86V161.164H3650.44C3648.07 165.072 3644.46 168.329 3639.6 170.934C3634.86 173.539 3629.42 174.842 3623.26 174.842ZM3627.17 153.348C3631.55 153.348 3635.63 152.223 3639.42 149.973C3643.21 147.723 3646.23 144.585 3648.48 140.559C3650.73 136.532 3651.86 131.914 3651.86 126.703C3651.86 121.493 3650.73 116.874 3648.48 112.848C3646.23 108.822 3643.21 105.743 3639.42 103.611C3635.63 101.361 3631.55 100.236 3627.17 100.236C3622.9 100.236 3618.88 101.361 3615.09 103.611C3611.3 105.743 3608.28 108.822 3606.03 112.848C3603.78 116.874 3602.65 121.493 3602.65 126.703C3602.65 131.914 3603.78 136.532 3606.03 140.559C3608.28 144.585 3611.3 147.723 3615.09 149.973C3618.88 152.223 3622.9 153.348 3627.17 153.348ZM3724.66 167.737L3686.47 81.4069H3712.94L3736.39 137.717H3737.81L3760.37 81.4069H3786.3L3730.35 210.369H3705.3L3724.66 167.737ZM3865.69 174.842C3855.63 174.842 3846.8 172.118 3839.22 166.671C3831.76 161.105 3826.55 153.585 3823.59 144.112L3845.62 135.052C3847.16 140.618 3849.64 144.881 3853.08 147.842C3856.51 150.684 3860.72 152.105 3865.69 152.105C3871.14 152.105 3875.4 150.329 3878.48 146.776C3881.68 143.223 3883.28 138.25 3883.28 131.855V44.8144H3907.26V131.677C3907.26 140.914 3905.42 148.789 3901.75 155.302C3898.08 161.697 3893.11 166.553 3886.83 169.868C3880.55 173.184 3873.51 174.842 3865.69 174.842ZM3958.84 174.842C3949.24 174.842 3941.37 172.059 3935.21 166.493C3929.05 160.809 3925.97 153.408 3925.97 144.289C3925.97 138.25 3927.57 132.921 3930.77 128.302C3933.97 123.684 3938.35 120.131 3943.91 117.644C3949.48 115.157 3955.64 113.914 3962.39 113.914C3971.74 113.914 3979.74 115.276 3986.37 117.999V114.091C3986.37 109.118 3984.47 105.091 3980.68 102.012C3977.01 98.9334 3972.04 97.3939 3965.76 97.3939C3961.5 97.3939 3957.35 98.4005 3953.33 100.414C3949.42 102.308 3946.16 104.855 3943.56 108.052L3928.64 96.3281C3933.02 90.6438 3938.53 86.2622 3945.16 83.1832C3951.79 80.1042 3959.01 78.5647 3966.83 78.5647C3980.68 78.5647 3991.22 81.7621 3998.45 88.157C4005.67 94.5518 4009.28 103.907 4009.28 116.223V172H3986.37V162.763H3984.95C3982.22 166.316 3978.61 169.217 3974.11 171.467C3969.73 173.717 3964.64 174.842 3958.84 174.842ZM3964.34 156.724C3971.09 156.724 3976.42 154.592 3980.33 150.329C3984.36 145.947 3986.37 140.855 3986.37 135.052C3980.33 132.21 3973.99 130.789 3967.36 130.789C3955.28 130.789 3949.24 135.289 3949.24 144.289C3949.24 147.96 3950.55 150.98 3953.15 153.348C3955.76 155.599 3959.49 156.724 3964.34 156.724ZM4030.7 81.4069H4052.55V92.7754H4053.97C4056.81 88.3938 4060.6 84.9596 4065.33 82.4727C4070.19 79.8674 4075.58 78.5647 4081.5 78.5647C4087.89 78.5647 4093.46 80.1042 4098.2 83.1832C4102.93 86.1438 4106.31 89.9333 4108.32 94.5518C4111.28 89.8149 4115.31 85.9661 4120.4 83.0056C4125.61 80.045 4131.71 78.5647 4138.7 78.5647C4149 78.5647 4156.82 81.7621 4162.14 88.157C4167.59 94.4333 4170.32 102.96 4170.32 113.736V172H4147.22V117.999C4147.22 112.315 4145.86 107.933 4143.14 104.855C4140.53 101.776 4136.86 100.236 4132.12 100.236C4126.09 100.236 4121.23 102.664 4117.56 107.519C4114.01 112.256 4112.23 118.532 4112.23 126.348V172H4088.96V117.999C4088.96 112.315 4087.54 107.933 4084.7 104.855C4081.97 101.776 4078.07 100.236 4072.97 100.236C4067.29 100.236 4062.67 102.664 4059.12 107.519C4055.68 112.256 4053.97 118.532 4053.97 126.348V172H4030.7V81.4069ZM4226.14 174.842C4215.12 174.842 4206.18 172.592 4199.31 168.092C4192.56 163.592 4187.83 157.73 4185.1 150.506L4205.89 141.447C4207.78 145.71 4210.45 148.967 4213.88 151.217C4217.43 153.348 4221.52 154.414 4226.14 154.414C4230.4 154.414 4233.95 153.763 4236.8 152.46C4239.64 151.039 4241.06 148.789 4241.06 145.71C4241.06 142.75 4239.76 140.559 4237.15 139.138C4234.55 137.598 4230.64 136.236 4225.43 135.052L4214.77 132.743C4207.43 130.967 4201.33 127.769 4196.47 123.151C4191.62 118.414 4189.19 112.552 4189.19 105.565C4189.19 100.354 4190.73 95.6768 4193.81 91.532C4197.01 87.3872 4201.27 84.1898 4206.6 81.9398C4212.05 79.6898 4218.03 78.5647 4224.54 78.5647C4243.25 78.5647 4255.74 85.1372 4262.02 98.2821L4242.12 106.986C4238.57 100.591 4232.89 97.3939 4225.07 97.3939C4221.05 97.3939 4217.85 98.1636 4215.48 99.7031C4213.11 101.124 4211.93 102.96 4211.93 105.21C4211.93 109.473 4215.95 112.67 4224.01 114.802L4237.33 117.999C4246.33 120.249 4253.08 123.684 4257.58 128.302C4262.2 132.921 4264.51 138.605 4264.51 145.355C4264.51 151.158 4262.79 156.309 4259.35 160.809C4256.04 165.191 4251.42 168.625 4245.5 171.112C4239.7 173.599 4233.24 174.842 4226.14 174.842ZM4295.39 173.066C4291.13 173.066 4287.46 171.586 4284.38 168.625C4281.42 165.546 4279.94 161.875 4279.94 157.612C4279.94 153.348 4281.42 149.737 4284.38 146.776C4287.46 143.815 4291.13 142.335 4295.39 142.335C4299.66 142.335 4303.27 143.815 4306.23 146.776C4309.31 149.737 4310.85 153.348 4310.85 157.612C4310.85 161.875 4309.31 165.546 4306.23 168.625C4303.27 171.586 4299.66 173.066 4295.39 173.066Z" fill="white"/>
<path d="M1779.45 44.8144H1806.1L1823.5 116.223L1825.64 129.546H1827.06L1829.9 116.223L1852.28 44.8144H1875.91L1897.75 116.223L1900.6 129.19H1902.02L1904.15 116.223L1921.38 44.8144H1948.03L1915.16 172H1889.41L1867.73 95.2623L1864.89 81.5845H1863.47L1860.63 95.2623L1837.89 172H1813.2L1779.45 44.8144ZM1995.59 174.842C1986.24 174.842 1977.89 172.77 1970.55 168.625C1963.2 164.362 1957.46 158.618 1953.32 151.395C1949.29 144.052 1947.28 135.822 1947.28 126.703C1947.28 117.703 1949.29 109.532 1953.32 102.19C1957.46 94.8478 1963.2 89.1043 1970.55 84.9596C1977.89 80.6963 1986.24 78.5647 1995.59 78.5647C2004.83 78.5647 2013.12 80.6963 2020.46 84.9596C2027.8 89.1043 2033.49 94.8478 2037.51 102.19C2041.66 109.532 2043.73 117.703 2043.73 126.703C2043.73 135.822 2041.66 144.052 2037.51 151.395C2033.49 158.618 2027.8 164.362 2020.46 168.625C2013.12 172.77 2004.83 174.842 1995.59 174.842ZM1995.59 153.348C2000.09 153.348 2004.24 152.283 2008.03 150.151C2011.82 148.019 2014.84 144.94 2017.09 140.914C2019.34 136.888 2020.46 132.151 2020.46 126.703C2020.46 121.374 2019.34 116.697 2017.09 112.67C2014.84 108.644 2011.82 105.565 2008.03 103.433C2004.24 101.302 2000.09 100.236 1995.59 100.236C1991.09 100.236 1986.95 101.302 1983.16 103.433C1979.37 105.565 1976.29 108.644 1973.92 112.67C1971.67 116.697 1970.55 121.374 1970.55 126.703C1970.55 132.032 1971.67 136.769 1973.92 140.914C1976.29 144.94 1979.37 148.019 1983.16 150.151C1986.95 152.283 1991.09 153.348 1995.59 153.348ZM2059.8 81.4069H2081.65V93.486H2083.07C2085.32 89.2228 2088.81 85.7293 2093.55 83.0056C2098.29 80.1634 2103.5 78.7424 2109.18 78.7424C2113.33 78.7424 2117.12 79.3937 2120.55 80.6964V103.966C2117.35 102.782 2114.63 101.953 2112.38 101.479C2110.25 100.887 2107.94 100.591 2105.45 100.591C2098.58 100.591 2093.14 103.078 2089.11 108.052C2085.08 113.026 2083.07 119.302 2083.07 126.881V172H2059.8V81.4069ZM2136.47 44.8144H2159.74V114.091H2160.99L2193.5 81.4069H2222.09V82.8279L2187.81 116.401L2223.69 170.579V172H2196.16L2171.47 132.388L2159.74 143.934V172H2136.47V44.8144ZM2268.43 174.842C2257.41 174.842 2248.47 172.592 2241.6 168.092C2234.85 163.592 2230.12 157.73 2227.39 150.506L2248.18 141.447C2250.07 145.71 2252.74 148.967 2256.17 151.217C2259.72 153.348 2263.81 154.414 2268.43 154.414C2272.69 154.414 2276.24 153.763 2279.08 152.46C2281.93 151.039 2283.35 148.789 2283.35 145.71C2283.35 142.75 2282.04 140.559 2279.44 139.138C2276.83 137.598 2272.93 136.236 2267.72 135.052L2257.06 132.743C2249.72 130.967 2243.62 127.769 2238.76 123.151C2233.91 118.414 2231.48 112.552 2231.48 105.565C2231.48 100.354 2233.02 95.6768 2236.1 91.532C2239.29 87.3872 2243.56 84.1898 2248.89 81.9398C2254.33 79.6898 2260.31 78.5647 2266.83 78.5647C2285.54 78.5647 2298.03 85.1372 2304.31 98.2821L2284.41 106.986C2280.86 100.591 2275.18 97.3939 2267.36 97.3939C2263.33 97.3939 2260.14 98.1636 2257.77 99.7031C2255.4 101.124 2254.22 102.96 2254.22 105.21C2254.22 109.473 2258.24 112.67 2266.29 114.802L2279.62 117.999C2288.62 120.249 2295.37 123.684 2299.87 128.302C2304.49 132.921 2306.79 138.605 2306.79 145.355C2306.79 151.158 2305.08 156.309 2301.64 160.809C2298.33 165.191 2293.71 168.625 2287.79 171.112C2281.99 173.599 2275.53 174.842 2268.43 174.842ZM2323.65 44.8144H2346.92V76.966L2345.5 92.7754H2346.92C2349.52 88.5122 2353.31 85.078 2358.29 82.4727C2363.26 79.8674 2368.65 78.5647 2374.45 78.5647C2385.47 78.5647 2393.87 81.8806 2399.68 88.5122C2405.6 95.0255 2408.56 104.085 2408.56 115.69V172H2385.29V118.532C2385.29 112.73 2383.69 108.23 2380.49 105.032C2377.41 101.835 2373.27 100.236 2368.06 100.236C2361.9 100.236 2356.81 102.723 2352.78 107.697C2348.87 112.67 2346.92 118.769 2346.92 125.993V172H2323.65V44.8144ZM2473.85 174.842C2464.49 174.842 2456.15 172.77 2448.8 168.625C2441.46 164.362 2435.72 158.618 2431.57 151.395C2427.55 144.052 2425.53 135.822 2425.53 126.703C2425.53 117.703 2427.55 109.532 2431.57 102.19C2435.72 94.8478 2441.46 89.1043 2448.8 84.9596C2456.15 80.6963 2464.49 78.5647 2473.85 78.5647C2483.09 78.5647 2491.38 80.6963 2498.72 84.9596C2506.06 89.1043 2511.74 94.8478 2515.77 102.19C2519.92 109.532 2521.99 117.703 2521.99 126.703C2521.99 135.822 2519.92 144.052 2515.77 151.395C2511.74 158.618 2506.06 164.362 2498.72 168.625C2491.38 172.77 2483.09 174.842 2473.85 174.842ZM2473.85 153.348C2478.35 153.348 2482.49 152.283 2486.28 150.151C2490.07 148.019 2493.09 144.94 2495.34 140.914C2497.59 136.888 2498.72 132.151 2498.72 126.703C2498.72 121.374 2497.59 116.697 2495.34 112.67C2493.09 108.644 2490.07 105.565 2486.28 103.433C2482.49 101.302 2478.35 100.236 2473.85 100.236C2469.35 100.236 2465.2 101.302 2461.42 103.433C2457.63 105.565 2454.55 108.644 2452.18 112.67C2449.93 116.697 2448.8 121.374 2448.8 126.703C2448.8 132.032 2449.93 136.769 2452.18 140.914C2454.55 144.94 2457.63 148.019 2461.42 150.151C2465.2 152.283 2469.35 153.348 2473.85 153.348ZM2538.22 81.4069H2560.06V92.4202H2561.49C2563.97 88.5122 2567.58 85.2556 2572.32 82.6503C2577.06 79.9266 2582.51 78.5647 2588.66 78.5647C2596.83 78.5647 2604.24 80.6371 2610.87 84.7819C2617.62 88.8083 2622.89 94.4926 2626.68 101.835C2630.47 109.177 2632.36 117.466 2632.36 126.703C2632.36 136.059 2630.47 144.408 2626.68 151.75C2622.89 158.974 2617.62 164.658 2610.87 168.803C2604.24 172.829 2596.83 174.842 2588.66 174.842C2582.51 174.842 2577 173.539 2572.14 170.934C2567.41 168.329 2563.85 165.072 2561.49 161.164H2560.06L2561.49 173.954V210.369H2538.22V81.4069ZM2584.58 153.348C2588.96 153.348 2593.04 152.223 2596.83 149.973C2600.62 147.723 2603.64 144.585 2605.89 140.559C2608.14 136.532 2609.27 131.914 2609.27 126.703C2609.27 121.493 2608.14 116.874 2605.89 112.848C2603.64 108.822 2600.62 105.743 2596.83 103.611C2593.04 101.361 2588.96 100.236 2584.58 100.236C2580.31 100.236 2576.29 101.361 2572.5 103.611C2568.71 105.743 2565.69 108.822 2563.44 112.848C2561.19 116.874 2560.06 121.493 2560.06 126.703C2560.06 131.914 2561.19 136.532 2563.44 140.559C2565.69 144.585 2568.71 147.723 2572.5 149.973C2576.29 152.223 2580.31 153.348 2584.58 153.348ZM2683.89 174.842C2672.87 174.842 2663.93 172.592 2657.06 168.092C2650.31 163.592 2645.58 157.73 2642.85 150.506L2663.64 141.447C2665.53 145.71 2668.2 148.967 2671.63 151.217C2675.18 153.348 2679.27 154.414 2683.89 154.414C2688.15 154.414 2691.7 153.763 2694.55 152.46C2697.39 151.039 2698.81 148.789 2698.81 145.71C2698.81 142.75 2697.51 140.559 2694.9 139.138C2692.3 137.598 2688.39 136.236 2683.18 135.052L2672.52 132.743C2665.18 130.967 2659.08 127.769 2654.22 123.151C2649.37 118.414 2646.94 112.552 2646.94 105.565C2646.94 100.354 2648.48 95.6768 2651.56 91.532C2654.76 87.3872 2659.02 84.1898 2664.35 81.9398C2669.8 79.6898 2675.78 78.5647 2682.29 78.5647C2701 78.5647 2713.49 85.1372 2719.77 98.2821L2699.87 106.986C2696.32 100.591 2690.64 97.3939 2682.82 97.3939C2678.8 97.3939 2675.6 98.1636 2673.23 99.7031C2670.86 101.124 2669.68 102.96 2669.68 105.21C2669.68 109.473 2673.7 112.67 2681.76 114.802L2695.08 117.999C2704.08 120.249 2710.83 123.684 2715.33 128.302C2719.95 132.921 2722.26 138.605 2722.26 145.355C2722.26 151.158 2720.54 156.309 2717.1 160.809C2713.79 165.191 2709.17 168.625 2703.25 171.112C2697.45 173.599 2690.99 174.842 2683.89 174.842ZM2753.14 173.066C2748.88 173.066 2745.21 171.586 2742.13 168.625C2739.17 165.546 2737.69 161.875 2737.69 157.612C2737.69 153.348 2739.17 149.737 2742.13 146.776C2745.21 143.815 2748.88 142.335 2753.14 142.335C2757.41 142.335 2761.02 143.815 2763.98 146.776C2767.06 149.737 2768.6 153.348 2768.6 157.612C2768.6 161.875 2767.06 165.546 2763.98 168.625C2761.02 171.586 2757.41 173.066 2753.14 173.066Z" fill="white"/>
<path d="M270.374 44.8144H294.355V95.6176H347.823V44.8144H371.803V172H347.823V118.355H294.355V172H270.374V44.8144ZM422.909 174.842C413.317 174.842 405.442 172.059 399.284 166.493C393.126 160.809 390.047 153.408 390.047 144.289C390.047 138.25 391.645 132.921 394.843 128.302C398.04 123.684 402.422 120.131 407.988 117.644C413.554 115.157 419.712 113.914 426.462 113.914C435.817 113.914 443.811 115.276 450.442 117.999V114.091C450.442 109.118 448.547 105.091 444.758 102.012C441.087 98.9334 436.113 97.3939 429.837 97.3939C425.573 97.3939 421.429 98.4005 417.402 100.414C413.494 102.308 410.238 104.855 407.632 108.052L392.711 96.3281C397.093 90.6438 402.6 86.2622 409.231 83.1832C415.863 80.1042 423.087 78.5647 430.902 78.5647C444.758 78.5647 455.297 81.7621 462.521 88.157C469.745 94.5518 473.357 103.907 473.357 116.223V172H450.442V162.763H449.021C446.297 166.316 442.686 169.217 438.185 171.467C433.804 173.717 428.712 174.842 422.909 174.842ZM428.416 156.724C435.166 156.724 440.495 154.592 444.403 150.329C448.429 145.947 450.442 140.855 450.442 135.052C444.403 132.21 438.067 130.789 431.435 130.789C419.356 130.789 413.317 135.289 413.317 144.289C413.317 147.96 414.619 150.98 417.225 153.348C419.83 155.599 423.56 156.724 428.416 156.724ZM536.535 174.842C527.416 174.842 519.245 172.829 512.021 168.803C504.798 164.658 499.113 158.914 494.969 151.572C490.942 144.23 488.929 135.94 488.929 126.703C488.929 117.466 490.942 109.236 494.969 102.012C499.113 94.6702 504.798 88.9267 512.021 84.7819C519.245 80.6371 527.416 78.5647 536.535 78.5647C546.601 78.5647 555.246 80.7556 562.469 85.1372C569.693 89.4004 574.904 95.4991 578.101 103.433L556.785 112.315C552.995 104.262 546.245 100.236 536.535 100.236C529.429 100.236 523.568 102.664 518.949 107.519C514.449 112.374 512.199 118.769 512.199 126.703C512.199 134.756 514.449 141.21 518.949 146.065C523.568 150.921 529.429 153.348 536.535 153.348C546.364 153.348 553.469 149.085 557.851 140.559L578.989 149.796C575.081 157.73 569.515 163.888 562.292 168.27C555.068 172.651 546.482 174.842 536.535 174.842ZM595.73 44.8144H619V114.091H620.243L652.75 81.4069H681.349V82.8279L647.066 116.401L682.948 170.579V172H655.415L630.724 132.388L619 143.934V172H595.73V44.8144ZM720.931 174.842C711.339 174.842 703.464 172.059 697.306 166.493C691.148 160.809 688.069 153.408 688.069 144.289C688.069 138.25 689.667 132.921 692.865 128.302C696.062 123.684 700.444 120.131 706.01 117.644C711.576 115.157 717.733 113.914 724.484 113.914C733.839 113.914 741.832 115.276 748.464 117.999V114.091C748.464 109.118 746.569 105.091 742.78 102.012C739.109 98.9334 734.135 97.3939 727.859 97.3939C723.595 97.3939 719.451 98.4005 715.424 100.414C711.516 102.308 708.26 104.855 705.654 108.052L690.733 96.3281C695.115 90.6438 700.621 86.2622 707.253 83.1832C713.885 80.1042 721.109 78.5647 728.924 78.5647C742.78 78.5647 753.319 81.7621 760.543 88.157C767.767 94.5518 771.379 103.907 771.379 116.223V172H748.464V162.763H747.043C744.319 166.316 740.707 169.217 736.207 171.467C731.826 173.717 726.734 174.842 720.931 174.842ZM726.438 156.724C733.188 156.724 738.517 154.592 742.425 150.329C746.451 145.947 748.464 140.855 748.464 135.052C742.425 132.21 736.089 130.789 729.457 130.789C717.378 130.789 711.339 135.289 711.339 144.289C711.339 147.96 712.641 150.98 715.247 153.348C717.852 155.599 721.582 156.724 726.438 156.724ZM830.492 173.421C825.992 173.421 821.847 172.77 818.058 171.467C814.268 170.046 811.189 168.151 808.821 165.783C803.255 160.454 800.472 152.875 800.472 143.046V101.302H784.663V81.4069H800.472V55.8276H823.742V81.4069H845.946V101.302H823.742V138.783C823.742 143.401 824.748 146.717 826.762 148.73C828.42 150.625 831.262 151.572 835.288 151.572C837.538 151.572 839.374 151.276 840.795 150.684C842.334 150.092 844.288 149.085 846.657 147.664V170.401C841.564 172.414 836.176 173.421 830.492 173.421ZM866.17 44.8144H889.44V76.966L888.019 92.7754H889.44C892.045 88.5122 895.835 85.078 900.808 82.4727C905.782 79.8674 911.17 78.5647 916.973 78.5647C927.986 78.5647 936.394 81.8806 942.197 88.5122C948.118 95.0255 951.079 104.085 951.079 115.69V172H927.809V118.532C927.809 112.73 926.21 108.23 923.013 105.032C919.934 101.835 915.789 100.236 910.578 100.236C904.42 100.236 899.328 102.723 895.302 107.697C891.394 112.67 889.44 118.769 889.44 125.993V172H866.17V44.8144ZM1016.37 174.842C1007.01 174.842 998.666 172.77 991.324 168.625C983.982 164.362 978.238 158.618 974.093 151.395C970.067 144.052 968.054 135.822 968.054 126.703C968.054 117.703 970.067 109.532 974.093 102.19C978.238 94.8478 983.982 89.1043 991.324 84.9596C998.666 80.6963 1007.01 78.5647 1016.37 78.5647C1025.61 78.5647 1033.9 80.6963 1041.24 84.9596C1048.58 89.1043 1054.27 94.8478 1058.29 102.19C1062.44 109.532 1064.51 117.703 1064.51 126.703C1064.51 135.822 1062.44 144.052 1058.29 151.395C1054.27 158.618 1048.58 164.362 1041.24 168.625C1033.9 172.77 1025.61 174.842 1016.37 174.842ZM1016.37 153.348C1020.87 153.348 1025.02 152.283 1028.8 150.151C1032.59 148.019 1035.61 144.94 1037.86 140.914C1040.11 136.888 1041.24 132.151 1041.24 126.703C1041.24 121.374 1040.11 116.697 1037.86 112.67C1035.61 108.644 1032.59 105.565 1028.8 103.433C1025.02 101.302 1020.87 100.236 1016.37 100.236C1011.87 100.236 1007.73 101.302 1003.94 103.433C1000.15 105.565 997.067 108.644 994.699 112.67C992.449 116.697 991.324 121.374 991.324 126.703C991.324 132.032 992.449 136.769 994.699 140.914C997.067 144.94 1000.15 148.019 1003.94 150.151C1007.73 152.283 1011.87 153.348 1016.37 153.348ZM1080.58 81.4069H1102.43V92.7754H1103.85C1106.57 88.3938 1110.42 84.9596 1115.4 82.4727C1120.37 79.8674 1125.76 78.5647 1131.56 78.5647C1142.45 78.5647 1150.74 81.8806 1156.43 88.5122C1162.11 95.1439 1164.96 104.203 1164.96 115.69V172H1141.69V118.532C1141.69 112.73 1140.2 108.23 1137.24 105.032C1134.28 101.835 1130.14 100.236 1124.81 100.236C1118.53 100.236 1113.44 102.664 1109.53 107.519C1105.74 112.374 1103.85 118.473 1103.85 125.815V172H1080.58V81.4069ZM1220.51 174.842C1209.5 174.842 1200.56 172.592 1193.69 168.092C1186.94 163.592 1182.2 157.73 1179.48 150.506L1200.26 141.447C1202.15 145.71 1204.82 148.967 1208.25 151.217C1211.81 153.348 1215.89 154.414 1220.51 154.414C1224.77 154.414 1228.33 153.763 1231.17 152.46C1234.01 151.039 1235.43 148.789 1235.43 145.71C1235.43 142.75 1234.13 140.559 1231.52 139.138C1228.92 137.598 1225.01 136.236 1219.8 135.052L1209.14 132.743C1201.8 130.967 1195.7 127.769 1190.85 123.151C1185.99 118.414 1183.56 112.552 1183.56 105.565C1183.56 100.354 1185.1 95.6768 1188.18 91.532C1191.38 87.3872 1195.64 84.1898 1200.97 81.9398C1206.42 79.6898 1212.4 78.5647 1218.91 78.5647C1237.62 78.5647 1250.12 85.1372 1256.39 98.2821L1236.5 106.986C1232.94 100.591 1227.26 97.3939 1219.44 97.3939C1215.42 97.3939 1212.22 98.1636 1209.85 99.7031C1207.48 101.124 1206.3 102.96 1206.3 105.21C1206.3 109.473 1210.33 112.67 1218.38 114.802L1231.7 117.999C1240.7 120.249 1247.45 123.684 1251.95 128.302C1256.57 132.921 1258.88 138.605 1258.88 145.355C1258.88 151.158 1257.16 156.309 1253.73 160.809C1250.41 165.191 1245.79 168.625 1239.87 171.112C1234.07 173.599 1227.62 174.842 1220.51 174.842ZM1289.77 173.066C1285.5 173.066 1281.83 171.586 1278.75 168.625C1275.79 165.546 1274.31 161.875 1274.31 157.612C1274.31 153.348 1275.79 149.737 1278.75 146.776C1281.83 143.815 1285.5 142.335 1289.77 142.335C1294.03 142.335 1297.64 143.815 1300.6 146.776C1303.68 149.737 1305.22 153.348 1305.22 157.612C1305.22 161.875 1303.68 165.546 1300.6 168.625C1297.64 171.586 1294.03 173.066 1289.77 173.066Z" fill="white"/>
</svg>
